<svg xmlns="http://www.w3.org/2000/svg" version="1.1" xmlns:xlink="http://www.w3.org/1999/xlink" width="512" height="512" x="0" y="0" viewBox="0 0 511.891 511.891" style="enable-background:new 0 0 512 512" xml:space="preserve" class=""><g><path d="M221.306 213.682a7.5 7.5 0 0 0 7.5 7.5h71.748a7.5 7.5 0 0 0 0-15h-71.748a7.5 7.5 0 0 0-7.5 7.5zM143.456 87.703c0 26.358 21.444 47.803 47.803 47.803 26.358 0 47.803-21.444 47.803-47.803 0-26.006-20.878-47.213-46.751-47.777v-5.614c0-8.503-4.025-16.674-10.767-21.856L167.362 1.554a7.5 7.5 0 0 0-9.142 11.892l14.182 10.902a12.645 12.645 0 0 1 4.908 9.964v7.669c-19.575 5.984-33.854 24.215-33.854 45.722zm80.606 0c0 18.087-14.715 32.803-32.803 32.803s-32.803-14.715-32.803-32.803c0-13.102 7.724-24.429 18.854-29.681v5.499a7.5 7.5 0 0 0 15 0v-8.594c17.602.558 31.752 15.041 31.752 32.776z" fill="#ffffff" opacity="1" data-original="#000000" class=""></path><path d="M435.223 19.807a14.473 14.473 0 0 0-8.564-7.139l-36.4-11.348a14.463 14.463 0 0 0-11.104 1.008 14.473 14.473 0 0 0-7.139 8.564l-31.081 99.698c-20.571-20.781-48.018-34.88-78.991-38.502a7.5 7.5 0 1 0-1.742 14.898c59.458 6.953 104.296 57.406 104.296 117.359v1.836h-31.981a7.5 7.5 0 0 0 0 15h40.852c9.673 0 17.542 7.869 17.542 17.542 0 9.672-7.869 17.541-17.542 17.541H118.702c-9.673 0-17.542-7.869-17.542-17.541 0-9.673 7.869-17.542 17.542-17.542h44.089a7.5 7.5 0 0 0 0-15h-34.644v-1.836c0-22.762 6.486-44.862 18.758-63.91 2.244-3.482 1.239-8.124-2.243-10.367s-8.124-1.24-10.367 2.243c-13.835 21.476-21.148 46.384-21.148 72.034v2.32c-15.306 2.645-26.987 16.009-26.987 32.058a32.338 32.338 0 0 0 5.154 17.541h-2.485c-7.63 0-13.837 6.207-13.837 13.837 0 83.604 60.122 153.418 139.397 168.509v21.129l-58.767 28.904c-5.141 2.528-7.824 8.19-6.526 13.77s6.206 9.477 11.934 9.477h171.009c5.729 0 10.636-3.897 11.934-9.477s-1.386-11.242-6.526-13.77L278.68 459.74v-21.129c79.276-15.091 139.397-84.906 139.397-168.509 0-7.63-6.207-13.837-13.837-13.837h-3.485a32.338 32.338 0 0 0 5.154-17.541c0-15.213-10.495-28.018-24.625-31.563l28.955-92.877a7.5 7.5 0 0 0-14.321-4.464l-1.863 5.976-40.711 9.253c-.281-.379-.57-.752-.855-1.128l15.146-48.583 42.009-9.549-4.212 13.512a7.5 7.5 0 0 0 14.321 4.464l16.477-52.854a14.468 14.468 0 0 0-1.007-11.104zM268.117 314.163v36.527c0 8.01-6.517 14.527-14.528 14.527s-14.528-6.517-14.528-14.527v-79.424h64.706v7.247c0 12.098-9.842 21.939-21.939 21.939-7.56 0-13.711 6.151-13.711 13.711zm-.247 156.977 52.357 25.751H172.843L225.2 471.14a7.501 7.501 0 0 0 4.19-6.73v-23.619a172.561 172.561 0 0 0 34.29 0v23.619a7.501 7.501 0 0 0 4.19 6.73zm-21.335-44.495c-58.025 0-108.772-31.741-135.809-78.767 9.391-1.585 24.421-3.837 40.842-5.181a7.5 7.5 0 1 0-1.224-14.95c-20.151 1.65-37.925 4.551-46.749 6.138-8.583-19.16-13.434-40.341-13.598-62.62h134.065v61.715l-1.768-.616c-9.995-3.483-23.189-5.423-39.215-5.765-4.156-.101-7.57 3.197-7.659 7.338a7.5 7.5 0 0 0 7.338 7.658c14.452.309 26.092 1.968 34.599 4.933l6.705 2.337v1.825c0 16.281 13.246 29.527 29.528 29.527 11.911 0 22.19-7.093 26.854-17.273 5.495.51 11.002.771 16.503.771 23.768 0 47.414-4.731 69.431-13.989l19.408-8.161c-26.011 50.478-78.665 85.08-139.251 85.08zM394.333 321.7l-33.769 14.2c-24.444 10.277-51.075 14.447-77.446 12.211V315.43c19.774-.682 35.65-16.98 35.65-36.917v-7.247h84.305c-.13 17.653-3.202 34.618-8.74 50.434zm-5.438-189.349-12.925 41.458a132.698 132.698 0 0 0-13.898-35.362zm25.913-83.118-42.009 9.549 13.409-43.012 35.575 11.091z" fill="#ffffff" opacity="1" data-original="#000000" class=""></path><path d="M189.245 151.004a7.5 7.5 0 0 0-8.87 12.096l6.449 4.729a7.468 7.468 0 0 0 4.429 1.452 7.5 7.5 0 0 0 4.441-13.548zM241.572 162.676a7.472 7.472 0 0 0 4.959 1.876 7.48 7.48 0 0 0 5.626-2.538l3.875-4.391c2.741-3.105 2.445-7.845-.661-10.586s-7.846-2.445-10.586.661l-3.875 4.391a7.503 7.503 0 0 0 .662 10.587zM291.279 124.739l-4.729-3.041a7.5 7.5 0 0 0-8.114 12.616l4.729 3.041a7.496 7.496 0 0 0 10.365-2.251 7.5 7.5 0 0 0-2.251-10.365zM291.94 167.71a7.499 7.499 0 0 0 2.562 10.292l5.742 3.453a7.498 7.498 0 0 0 10.293-2.562 7.499 7.499 0 0 0-2.562-10.292l-5.742-3.453a7.5 7.5 0 0 0-10.293 2.562z" fill="#ffffff" opacity="1" data-original="#000000" class=""></path></g></svg>