<svg xmlns="http://www.w3.org/2000/svg" version="1.1" xmlns:xlink="http://www.w3.org/1999/xlink" width="512" height="512" x="0" y="0" viewBox="0 0 682.667 682.667" style="enable-background:new 0 0 512 512" xml:space="preserve" class=""><g transform="matrix(1.0000000000000007,0,0,1.0000000000000007,-5.684341886080802e-14,1.7053025658242404e-13)"><defs><clipPath id="a" clipPathUnits="userSpaceOnUse"><path d="M0 512h512V0H0Z" fill="#ffffff" opacity="1" data-original="#000000" class=""></path></clipPath></defs><path d="M0 0v31.634" style="stroke-width:15;stroke-linecap:round;stroke-linejoin:round;stroke-miterlimit:10;stroke-dasharray:none;stroke-opacity:1" transform="matrix(1.33333 0 0 -1.33333 72.077 181.893)" fill="none" stroke="#ffffff" stroke-width="15" stroke-linecap="round" stroke-linejoin="round" stroke-miterlimit="10" stroke-dasharray="none" stroke-opacity="" data-original="#000000" opacity="1" class=""></path><g clip-path="url(#a)" transform="matrix(1.33333 0 0 -1.33333 0 682.667)"><path d="m0 0-16.301-29.421a22.018 22.018 0 0 1 4.509-27.017C-3.412-64 9.33-64 17.71-56.438a22.019 22.019 0 0 1 4.508 27.017L5.917 0C4.629 2.324 1.288 2.324 0 0Z" style="stroke-width:15;stroke-linecap:round;stroke-linejoin:round;stroke-miterlimit:10;stroke-dasharray:none;stroke-opacity:1" transform="translate(51.1 461.376)" fill="none" stroke="#ffffff" stroke-width="15" stroke-linecap="round" stroke-linejoin="round" stroke-miterlimit="10" stroke-dasharray="none" stroke-opacity="" data-original="#000000" opacity="1" class=""></path><path d="M0 0c0-32.714-25.817-59.329-57.551-59.329S-115.102-32.714-115.102 0z" style="stroke-width:15;stroke-linecap:round;stroke-linejoin:round;stroke-miterlimit:10;stroke-dasharray:none;stroke-opacity:1" transform="translate(192.56 220.957)" fill="none" stroke="#ffffff" stroke-width="15" stroke-linecap="round" stroke-linejoin="round" stroke-miterlimit="10" stroke-dasharray="none" stroke-opacity="" data-original="#000000" opacity="1" class=""></path><path d="M0 0v70.093a41.018 41.018 0 0 0-13.373-2.237c-4.684 0-9.179.794-13.373 2.237V0Z" style="stroke-width:15;stroke-linecap:round;stroke-linejoin:round;stroke-miterlimit:10;stroke-dasharray:none;stroke-opacity:1" transform="translate(67.431 75.627)" fill="none" stroke="#ffffff" stroke-width="15" stroke-linecap="round" stroke-linejoin="round" stroke-miterlimit="10" stroke-dasharray="none" stroke-opacity="" data-original="#000000" opacity="1" class=""></path><path d="M0 0v58.221a4.641 4.641 0 0 0 4.641 4.64h20.504v86.084a5.678 5.678 0 0 1-5.678 5.678h-38.934a5.678 5.678 0 0 1-5.678-5.678V-4.568H.131A87.5 87.5 0 0 0 0 0Z" style="stroke-width:15;stroke-linecap:round;stroke-linejoin:round;stroke-miterlimit:10;stroke-dasharray:none;stroke-opacity:1" transform="translate(54.058 220.957)" fill="none" stroke="#ffffff" stroke-width="15" stroke-linecap="round" stroke-linejoin="round" stroke-miterlimit="10" stroke-dasharray="none" stroke-opacity="" data-original="#000000" opacity="1" class=""></path><path d="M0 0c-17.114 14.402-28.407 35.867-29.675 60.092h-41.241V28.296c0-22.704 18.406-41.109 41.11-41.109C-18.069-12.813-7.491-7.888 0 0z" style="stroke-width:15;stroke-linecap:round;stroke-linejoin:round;stroke-miterlimit:10;stroke-dasharray:none;stroke-opacity:1" transform="translate(83.864 156.297)" fill="none" stroke="#ffffff" stroke-width="15" stroke-linecap="round" stroke-linejoin="round" stroke-miterlimit="10" stroke-dasharray="none" stroke-opacity="" data-original="#000000" opacity="1" class=""></path><path d="m0 0 13.328 9.114C8.753 17.293.012 22.825-10.026 22.825H-49.65c-14.771 0-26.746-11.974-26.746-26.746H1.549C-.839-3.921-1.88-1.285 0 0Z" style="stroke-width:15;stroke-linecap:round;stroke-linejoin:round;stroke-miterlimit:10;stroke-dasharray:none;stroke-opacity:1" transform="translate(83.896 52.802)" fill="none" stroke="#ffffff" stroke-width="15" stroke-linecap="round" stroke-linejoin="round" stroke-miterlimit="10" stroke-dasharray="none" stroke-opacity="" data-original="#000000" opacity="1" class=""></path><path d="M0 0v0c5.725 0 11.383-.288 16.962-.842v19.921c0 9.368-7.594 16.962-16.962 16.962-9.368 0-16.962-7.594-16.962-16.962V-.842C-11.383-.288-5.726 0 0 0Z" style="stroke-width:15;stroke-linecap:round;stroke-linejoin:round;stroke-miterlimit:10;stroke-dasharray:none;stroke-opacity:1" transform="translate(307.737 257.518)" fill="none" stroke="#ffffff" stroke-width="15" stroke-linecap="round" stroke-linejoin="round" stroke-miterlimit="10" stroke-dasharray="none" stroke-opacity="" data-original="#000000" opacity="1" class=""></path><path d="M0 0h-152.622a4.641 4.641 0 0 1-4.64-4.641v-58.22c0-40.854 28.485-74.828 66.093-82.025v-59.163c-1.982-2.774-4.516-5.264-7.536-7.329l-28.719-19.639c-1.881-1.285-.84-3.92 1.549-3.92h99.129c2.389 0 3.43 2.635 1.549 3.92l-28.719 19.639c-3.021 2.065-5.554 4.555-7.536 7.329v59.163c37.608 7.196 66.093 41.171 66.093 82.025v58.22A4.641 4.641 0 0 1 0 0Z" style="stroke-width:15;stroke-linecap:round;stroke-linejoin:round;stroke-miterlimit:10;stroke-dasharray:34, 35, 800, 0;stroke-dashoffset:0;stroke-opacity:1" transform="translate(211.32 283.818)" fill="none" stroke="#ffffff" stroke-width="15" stroke-linecap="round" stroke-linejoin="round" stroke-miterlimit="10" stroke-dasharray="34, 35, 800, 0" stroke-dashoffset="0" stroke-opacity="" data-original="#000000" opacity="1" class=""></path><path d="M0 0v0c-33.818 0-65.321-9.901-91.776-26.958 0-11.885 2.186-40.161-21.875-66.619-12.25-13.478-27.911-21.883-44.218-25.008v-56.127h327.472v5.109C169.603-75.935 93.669 0 0 0Z" style="stroke-width:15;stroke-linecap:round;stroke-linejoin:round;stroke-miterlimit:10;stroke-dasharray:none;stroke-opacity:1" transform="translate(307.737 257.518)" fill="none" stroke="#ffffff" stroke-width="15" stroke-linecap="round" stroke-linejoin="round" stroke-miterlimit="10" stroke-dasharray="none" stroke-opacity="" data-original="#000000" opacity="1" class=""></path><path d="M0 0h-337.669v-3.024c2.058-2.895 4.75-5.437 7.535-7.341l28.719-19.639c1.881-1.285.84-3.921-1.548-3.921H0c9.368 0 16.962 7.595 16.962 16.962C16.962-7.595 9.368 0 0 0Z" style="stroke-width:15;stroke-linecap:round;stroke-linejoin:round;stroke-miterlimit:10;stroke-dasharray:621, 35, 600, 0;stroke-dashoffset:0;stroke-opacity:1" transform="translate(487.538 82.806)" fill="none" stroke="#ffffff" stroke-width="15" stroke-linecap="round" stroke-linejoin="round" stroke-miterlimit="10" stroke-dasharray="621, 35, 600, 0" stroke-dashoffset="0" stroke-opacity="" data-original="#000000" opacity="1" class=""></path></g></g></svg>